# xmcd
#
# Track frame offsets:
# 150
# 16662
# 43898
# 50355
# 77558
# 90680
# 109190
# 124857
# 137084
# 157661
# 179541
# 194035
# 229255
#
# Disc length: 3315 seconds
#
#
# Revision: 0
# Processed by: cddbd v1.5.2PL0 Copyright (c) Steve Scherf et al.
# Submitted via: FreeRIP 2.942 
#
DISCID=a80cf10d
DTITLE=Julian Sas - A Smile To My Soul
DYEAR=1900
DGENRE=Blues
TTITLE0=Sugarcup Boogie
TTITLE1=Is This What They Call The Blues
TTITLE2=Horror Tone Groove
TTITLE3=Last Man In First Man Out
TTITLE4=My Love Is Tumblin' Down
TTITLE5=Crossroad Call
TTITLE6=I Want Your Love
TTITLE7=Never Gettin' Tired
TTITLE8=Stone Desert
TTITLE9=My Life Is Gonna Be All Mine
TTITLE10=Boot Hill
TTITLE11=Where It Will End
TTITLE12=Makin' My Return
EXTD=
EXTT0=
EXTT1=
EXTT2=
EXTT3=
EXTT4=
EXTT5=
EXTT6=
EXTT7=
EXTT8=
EXTT9=
EXTT10=
EXTT11=
EXTT12=
PLAYORDER=
